<svg width="666" height="674" viewBox="0 0 666 674" fill="none" xmlns="http://www.w3.org/2000/svg">
<g filter="url(#filter0_dd_150_360)">
<path d="M561.337 337.332C561.337 461.275 460.784 561.75 336.746 561.75C212.707 561.75 112.155 461.275 112.155 337.332C112.155 213.39 212.707 112.914 336.746 112.914C460.784 112.914 561.337 213.39 561.337 337.332Z" fill="url(#paint0_linear_150_360)"/>
<path d="M561.337 337.332C561.337 461.275 460.784 561.75 336.746 561.75C212.707 561.75 112.155 461.275 112.155 337.332C112.155 213.39 212.707 112.914 336.746 112.914C460.784 112.914 561.337 213.39 561.337 337.332Z" stroke="black"/>
<path d="M561.337 337.332C561.337 461.275 460.784 561.75 336.746 561.75C212.707 561.75 112.155 461.275 112.155 337.332C112.155 213.39 212.707 112.914 336.746 112.914C460.784 112.914 561.337 213.39 561.337 337.332Z" stroke="black" stroke-opacity="0.2"/>
<path d="M337.5 12V156.422C237.905 156.844 156.956 237.731 156.533 337.25H12C12.4225 158.097 158.21 12.4222 337.5 12Z" fill="url(#paint1_linear_150_360)"/>
<g filter="url(#filter1_d_150_360)">
<path d="M337.5 517.578V662C158.21 661.578 12.4225 515.903 12 336.75H156.533C156.956 436.269 237.905 517.156 337.5 517.578Z" fill="url(#paint2_linear_150_360)"/>
</g>
<g filter="url(#filter2_d_150_360)">
<path d="M662 336.75C661.578 515.903 515.79 661.578 336.5 662V517.578C436.095 517.156 517.044 436.269 517.467 336.75H662Z" fill="url(#paint3_linear_150_360)"/>
</g>
<g filter="url(#filter3_d_150_360)">
<path d="M662 337.25H517.467C517.044 237.731 436.095 156.844 336.5 156.422V12C515.79 12.4222 661.578 158.097 662 337.25Z" fill="url(#paint4_linear_150_360)"/>
</g>
</g>
<path d="M480.582 210.883L485.07 196.938H488.316L482.199 214H480.008L480.582 210.883ZM476.434 196.938L480.887 210.883L481.496 214H479.293L473.199 196.938H476.434ZM495.02 214.234C494.082 214.234 493.234 214.082 492.477 213.777C491.727 213.465 491.086 213.031 490.555 212.477C490.031 211.922 489.629 211.27 489.348 210.52C489.066 209.77 488.926 208.961 488.926 208.094V207.625C488.926 206.633 489.07 205.734 489.359 204.93C489.648 204.125 490.051 203.438 490.566 202.867C491.082 202.289 491.691 201.848 492.395 201.543C493.098 201.238 493.859 201.086 494.68 201.086C495.586 201.086 496.379 201.238 497.059 201.543C497.738 201.848 498.301 202.277 498.746 202.832C499.199 203.379 499.535 204.031 499.754 204.789C499.98 205.547 500.094 206.383 500.094 207.297V208.504H490.297V206.477H497.305V206.254C497.289 205.746 497.188 205.27 497 204.824C496.82 204.379 496.543 204.02 496.168 203.746C495.793 203.473 495.293 203.336 494.668 203.336C494.199 203.336 493.781 203.438 493.414 203.641C493.055 203.836 492.754 204.121 492.512 204.496C492.27 204.871 492.082 205.324 491.949 205.855C491.824 206.379 491.762 206.969 491.762 207.625V208.094C491.762 208.648 491.836 209.164 491.984 209.641C492.141 210.109 492.367 210.52 492.664 210.871C492.961 211.223 493.32 211.5 493.742 211.703C494.164 211.898 494.645 211.996 495.184 211.996C495.863 211.996 496.469 211.859 497 211.586C497.531 211.312 497.992 210.926 498.383 210.426L499.871 211.867C499.598 212.266 499.242 212.648 498.805 213.016C498.367 213.375 497.832 213.668 497.199 213.895C496.574 214.121 495.848 214.234 495.02 214.234ZM505.086 196V214H502.273V196H505.086ZM504.594 207.191L503.68 207.18C503.688 206.305 503.809 205.496 504.043 204.754C504.285 204.012 504.621 203.367 505.051 202.82C505.488 202.266 506.012 201.84 506.621 201.543C507.23 201.238 507.906 201.086 508.648 201.086C509.273 201.086 509.836 201.172 510.336 201.344C510.844 201.516 511.281 201.793 511.648 202.176C512.016 202.551 512.293 203.043 512.48 203.652C512.676 204.254 512.773 204.988 512.773 205.855V214H509.938V205.832C509.938 205.223 509.848 204.738 509.668 204.379C509.496 204.02 509.242 203.762 508.906 203.605C508.57 203.441 508.16 203.359 507.676 203.359C507.168 203.359 506.719 203.461 506.328 203.664C505.945 203.867 505.625 204.145 505.367 204.496C505.109 204.848 504.914 205.254 504.781 205.715C504.656 206.176 504.594 206.668 504.594 207.191ZM518.691 201.32V214H515.867V201.32H518.691ZM515.891 199.633L518.176 196.105H521.363L518.176 199.633H515.891ZM527.094 211.984C527.555 211.984 527.969 211.895 528.336 211.715C528.711 211.527 529.012 211.27 529.238 210.941C529.473 210.613 529.602 210.234 529.625 209.805H532.285C532.27 210.625 532.027 211.371 531.559 212.043C531.09 212.715 530.469 213.25 529.695 213.648C528.922 214.039 528.066 214.234 527.129 214.234C526.16 214.234 525.316 214.07 524.598 213.742C523.879 213.406 523.281 212.945 522.805 212.359C522.328 211.773 521.969 211.098 521.727 210.332C521.492 209.566 521.375 208.746 521.375 207.871V207.461C521.375 206.586 521.492 205.766 521.727 205C521.969 204.227 522.328 203.547 522.805 202.961C523.281 202.375 523.879 201.918 524.598 201.59C525.316 201.254 526.156 201.086 527.117 201.086C528.133 201.086 529.023 201.289 529.789 201.695C530.555 202.094 531.156 202.652 531.594 203.371C532.039 204.082 532.27 204.91 532.285 205.855H529.625C529.602 205.387 529.484 204.965 529.273 204.59C529.07 204.207 528.781 203.902 528.406 203.676C528.039 203.449 527.598 203.336 527.082 203.336C526.512 203.336 526.039 203.453 525.664 203.688C525.289 203.914 524.996 204.227 524.785 204.625C524.574 205.016 524.422 205.457 524.328 205.949C524.242 206.434 524.199 206.938 524.199 207.461V207.871C524.199 208.395 524.242 208.902 524.328 209.395C524.414 209.887 524.562 210.328 524.773 210.719C524.992 211.102 525.289 211.41 525.664 211.645C526.039 211.871 526.516 211.984 527.094 211.984ZM542.082 211.012V201.32H544.918V214H542.246L542.082 211.012ZM542.48 208.375L543.43 208.352C543.43 209.203 543.336 209.988 543.148 210.707C542.961 211.418 542.672 212.039 542.281 212.57C541.891 213.094 541.391 213.504 540.781 213.801C540.172 214.09 539.441 214.234 538.59 214.234C537.973 214.234 537.406 214.145 536.891 213.965C536.375 213.785 535.93 213.508 535.555 213.133C535.188 212.758 534.902 212.27 534.699 211.668C534.496 211.066 534.395 210.348 534.395 209.512V201.32H537.219V209.535C537.219 209.996 537.273 210.383 537.383 210.695C537.492 211 537.641 211.246 537.828 211.434C538.016 211.621 538.234 211.754 538.484 211.832C538.734 211.91 539 211.949 539.281 211.949C540.086 211.949 540.719 211.793 541.18 211.48C541.648 211.16 541.98 210.73 542.176 210.191C542.379 209.652 542.48 209.047 542.48 208.375ZM550.836 196V214H548V196H550.836ZM553.391 207.801V207.531C553.391 206.617 553.523 205.77 553.789 204.988C554.055 204.199 554.438 203.516 554.938 202.938C555.445 202.352 556.062 201.898 556.789 201.578C557.523 201.25 558.352 201.086 559.273 201.086C560.203 201.086 561.031 201.25 561.758 201.578C562.492 201.898 563.113 202.352 563.621 202.938C564.129 203.516 564.516 204.199 564.781 204.988C565.047 205.77 565.18 206.617 565.18 207.531V207.801C565.18 208.715 565.047 209.562 564.781 210.344C564.516 211.125 564.129 211.809 563.621 212.395C563.113 212.973 562.496 213.426 561.77 213.754C561.043 214.074 560.219 214.234 559.297 214.234C558.367 214.234 557.535 214.074 556.801 213.754C556.074 213.426 555.457 212.973 554.949 212.395C554.441 211.809 554.055 211.125 553.789 210.344C553.523 209.562 553.391 208.715 553.391 207.801ZM556.215 207.531V207.801C556.215 208.371 556.273 208.91 556.391 209.418C556.508 209.926 556.691 210.371 556.941 210.754C557.191 211.137 557.512 211.438 557.902 211.656C558.293 211.875 558.758 211.984 559.297 211.984C559.82 211.984 560.273 211.875 560.656 211.656C561.047 211.438 561.367 211.137 561.617 210.754C561.867 210.371 562.051 209.926 562.168 209.418C562.293 208.91 562.355 208.371 562.355 207.801V207.531C562.355 206.969 562.293 206.438 562.168 205.938C562.051 205.43 561.863 204.98 561.605 204.59C561.355 204.199 561.035 203.895 560.645 203.676C560.262 203.449 559.805 203.336 559.273 203.336C558.742 203.336 558.281 203.449 557.891 203.676C557.508 203.895 557.191 204.199 556.941 204.59C556.691 204.98 556.508 205.43 556.391 205.938C556.273 206.438 556.215 206.969 556.215 207.531ZM574.66 210.566C574.66 210.285 574.59 210.031 574.449 209.805C574.309 209.57 574.039 209.359 573.641 209.172C573.25 208.984 572.672 208.812 571.906 208.656C571.234 208.508 570.617 208.332 570.055 208.129C569.5 207.918 569.023 207.664 568.625 207.367C568.227 207.07 567.918 206.719 567.699 206.312C567.48 205.906 567.371 205.438 567.371 204.906C567.371 204.391 567.484 203.902 567.711 203.441C567.938 202.98 568.262 202.574 568.684 202.223C569.105 201.871 569.617 201.594 570.219 201.391C570.828 201.188 571.508 201.086 572.258 201.086C573.32 201.086 574.23 201.266 574.988 201.625C575.754 201.977 576.34 202.457 576.746 203.066C577.152 203.668 577.355 204.348 577.355 205.105H574.531C574.531 204.77 574.445 204.457 574.273 204.168C574.109 203.871 573.859 203.633 573.523 203.453C573.188 203.266 572.766 203.172 572.258 203.172C571.773 203.172 571.371 203.25 571.051 203.406C570.738 203.555 570.504 203.75 570.348 203.992C570.199 204.234 570.125 204.5 570.125 204.789C570.125 205 570.164 205.191 570.242 205.363C570.328 205.527 570.469 205.68 570.664 205.82C570.859 205.953 571.125 206.078 571.461 206.195C571.805 206.312 572.234 206.426 572.75 206.535C573.719 206.738 574.551 207 575.246 207.32C575.949 207.633 576.488 208.039 576.863 208.539C577.238 209.031 577.426 209.656 577.426 210.414C577.426 210.977 577.305 211.492 577.062 211.961C576.828 212.422 576.484 212.824 576.031 213.168C575.578 213.504 575.035 213.766 574.402 213.953C573.777 214.141 573.074 214.234 572.293 214.234C571.145 214.234 570.172 214.031 569.375 213.625C568.578 213.211 567.973 212.684 567.559 212.043C567.152 211.395 566.949 210.723 566.949 210.027H569.68C569.711 210.551 569.855 210.969 570.113 211.281C570.379 211.586 570.707 211.809 571.098 211.949C571.496 212.082 571.906 212.148 572.328 212.148C572.836 212.148 573.262 212.082 573.605 211.949C573.949 211.809 574.211 211.621 574.391 211.387C574.57 211.145 574.66 210.871 574.66 210.566Z" fill="white"/>
<path d="M546.614 144.432H539.955L538.104 139.814C536.202 135.067 531.662 132 526.538 132H512.412C507.288 132 502.748 135.067 500.845 139.814L498.994 144.432H492.335C491.467 144.432 490.829 145.246 491.041 146.087L491.708 148.751C491.856 149.343 492.39 149.76 493.003 149.76H495.235C493.741 151.062 492.779 152.954 492.779 155.088V160.415C492.779 162.205 493.464 163.82 494.559 165.07V171.071C494.559 173.032 496.153 174.623 498.118 174.623H501.678C503.643 174.623 505.237 173.032 505.237 171.071V167.519H533.712V171.071C533.712 173.032 535.306 174.623 537.272 174.623H540.831C542.797 174.623 544.39 173.032 544.39 171.071V165.07C545.485 163.821 546.17 162.206 546.17 160.415V155.088C546.17 152.954 545.208 151.062 543.715 149.76H545.948C546.561 149.76 547.094 149.343 547.242 148.751L547.91 146.087C548.12 145.246 547.483 144.432 546.614 144.432ZM507.454 142.453C508.265 140.43 510.228 139.104 512.412 139.104H526.538C528.721 139.104 530.685 140.43 531.495 142.453L533.712 147.984H505.237L507.454 142.453ZM501.678 160.393C499.542 160.393 498.118 158.977 498.118 156.852C498.118 154.728 499.542 153.312 501.678 153.312C503.813 153.312 507.017 156.498 507.017 158.623C507.017 160.747 503.813 160.393 501.678 160.393ZM537.272 160.393C535.136 160.393 531.933 160.747 531.933 158.623C531.933 156.498 535.136 153.312 537.272 153.312C539.407 153.312 540.831 154.728 540.831 156.852C540.831 158.977 539.407 160.393 537.272 160.393Z" fill="white"/>
<path d="M96.9297 187.938H99.5547L104.488 201.098L109.41 187.938H112.035L105.52 205H103.434L96.9297 187.938ZM95.7344 187.938H98.2305L98.6641 199.328V205H95.7344V187.938ZM110.734 187.938H113.242V205H110.301V199.328L110.734 187.938ZM115.914 198.801V198.531C115.914 197.617 116.047 196.77 116.312 195.988C116.578 195.199 116.961 194.516 117.461 193.938C117.969 193.352 118.586 192.898 119.312 192.578C120.047 192.25 120.875 192.086 121.797 192.086C122.727 192.086 123.555 192.25 124.281 192.578C125.016 192.898 125.637 193.352 126.145 193.938C126.652 194.516 127.039 195.199 127.305 195.988C127.57 196.77 127.703 197.617 127.703 198.531V198.801C127.703 199.715 127.57 200.562 127.305 201.344C127.039 202.125 126.652 202.809 126.145 203.395C125.637 203.973 125.02 204.426 124.293 204.754C123.566 205.074 122.742 205.234 121.82 205.234C120.891 205.234 120.059 205.074 119.324 204.754C118.598 204.426 117.98 203.973 117.473 203.395C116.965 202.809 116.578 202.125 116.312 201.344C116.047 200.562 115.914 199.715 115.914 198.801ZM118.738 198.531V198.801C118.738 199.371 118.797 199.91 118.914 200.418C119.031 200.926 119.215 201.371 119.465 201.754C119.715 202.137 120.035 202.438 120.426 202.656C120.816 202.875 121.281 202.984 121.82 202.984C122.344 202.984 122.797 202.875 123.18 202.656C123.57 202.438 123.891 202.137 124.141 201.754C124.391 201.371 124.574 200.926 124.691 200.418C124.816 199.91 124.879 199.371 124.879 198.801V198.531C124.879 197.969 124.816 197.438 124.691 196.938C124.574 196.43 124.387 195.98 124.129 195.59C123.879 195.199 123.559 194.895 123.168 194.676C122.785 194.449 122.328 194.336 121.797 194.336C121.266 194.336 120.805 194.449 120.414 194.676C120.031 194.895 119.715 195.199 119.465 195.59C119.215 195.98 119.031 196.43 118.914 196.938C118.797 197.438 118.738 197.969 118.738 198.531ZM132.871 195.027V205H130.047V192.32H132.707L132.871 195.027ZM132.367 198.191L131.453 198.18C131.461 197.281 131.586 196.457 131.828 195.707C132.078 194.957 132.422 194.312 132.859 193.773C133.305 193.234 133.836 192.82 134.453 192.531C135.07 192.234 135.758 192.086 136.516 192.086C137.125 192.086 137.676 192.172 138.168 192.344C138.668 192.508 139.094 192.777 139.445 193.152C139.805 193.527 140.078 194.016 140.266 194.617C140.453 195.211 140.547 195.941 140.547 196.809V205H137.711V196.797C137.711 196.188 137.621 195.707 137.441 195.355C137.27 194.996 137.016 194.742 136.68 194.594C136.352 194.438 135.941 194.359 135.449 194.359C134.965 194.359 134.531 194.461 134.148 194.664C133.766 194.867 133.441 195.145 133.176 195.496C132.918 195.848 132.719 196.254 132.578 196.715C132.438 197.176 132.367 197.668 132.367 198.191ZM146.453 192.32V205H143.617V192.32H146.453ZM143.43 188.992C143.43 188.562 143.57 188.207 143.852 187.926C144.141 187.637 144.539 187.492 145.047 187.492C145.547 187.492 145.941 187.637 146.23 187.926C146.52 188.207 146.664 188.562 146.664 188.992C146.664 189.414 146.52 189.766 146.23 190.047C145.941 190.328 145.547 190.469 145.047 190.469C144.539 190.469 144.141 190.328 143.852 190.047C143.57 189.766 143.43 189.414 143.43 188.992ZM155.359 192.32V194.383H148.211V192.32H155.359ZM150.273 189.215H153.098V201.496C153.098 201.887 153.152 202.188 153.262 202.398C153.379 202.602 153.539 202.738 153.742 202.809C153.945 202.879 154.184 202.914 154.457 202.914C154.652 202.914 154.84 202.902 155.02 202.879C155.199 202.855 155.344 202.832 155.453 202.809L155.465 204.965C155.23 205.035 154.957 205.098 154.645 205.152C154.34 205.207 153.988 205.234 153.59 205.234C152.941 205.234 152.367 205.121 151.867 204.895C151.367 204.66 150.977 204.281 150.695 203.758C150.414 203.234 150.273 202.539 150.273 201.672V189.215ZM156.719 198.801V198.531C156.719 197.617 156.852 196.77 157.117 195.988C157.383 195.199 157.766 194.516 158.266 193.938C158.773 193.352 159.391 192.898 160.117 192.578C160.852 192.25 161.68 192.086 162.602 192.086C163.531 192.086 164.359 192.25 165.086 192.578C165.82 192.898 166.441 193.352 166.949 193.938C167.457 194.516 167.844 195.199 168.109 195.988C168.375 196.77 168.508 197.617 168.508 198.531V198.801C168.508 199.715 168.375 200.562 168.109 201.344C167.844 202.125 167.457 202.809 166.949 203.395C166.441 203.973 165.824 204.426 165.098 204.754C164.371 205.074 163.547 205.234 162.625 205.234C161.695 205.234 160.863 205.074 160.129 204.754C159.402 204.426 158.785 203.973 158.277 203.395C157.77 202.809 157.383 202.125 157.117 201.344C156.852 200.562 156.719 199.715 156.719 198.801ZM159.543 198.531V198.801C159.543 199.371 159.602 199.91 159.719 200.418C159.836 200.926 160.02 201.371 160.27 201.754C160.52 202.137 160.84 202.438 161.23 202.656C161.621 202.875 162.086 202.984 162.625 202.984C163.148 202.984 163.602 202.875 163.984 202.656C164.375 202.438 164.695 202.137 164.945 201.754C165.195 201.371 165.379 200.926 165.496 200.418C165.621 199.91 165.684 199.371 165.684 198.801V198.531C165.684 197.969 165.621 197.438 165.496 196.938C165.379 196.43 165.191 195.98 164.934 195.59C164.684 195.199 164.363 194.895 163.973 194.676C163.59 194.449 163.133 194.336 162.602 194.336C162.07 194.336 161.609 194.449 161.219 194.676C160.836 194.895 160.52 195.199 160.27 195.59C160.02 195.98 159.836 196.43 159.719 196.938C159.602 197.438 159.543 197.969 159.543 198.531ZM173.711 194.734V205H170.887V192.32H173.582L173.711 194.734ZM177.59 192.238L177.566 194.863C177.395 194.832 177.207 194.809 177.004 194.793C176.809 194.777 176.613 194.77 176.418 194.77C175.934 194.77 175.508 194.84 175.141 194.98C174.773 195.113 174.465 195.309 174.215 195.566C173.973 195.816 173.785 196.121 173.652 196.48C173.52 196.84 173.441 197.242 173.418 197.688L172.773 197.734C172.773 196.938 172.852 196.199 173.008 195.52C173.164 194.84 173.398 194.242 173.711 193.727C174.031 193.211 174.43 192.809 174.906 192.52C175.391 192.23 175.949 192.086 176.582 192.086C176.754 192.086 176.938 192.102 177.133 192.133C177.336 192.164 177.488 192.199 177.59 192.238ZM184.715 205.234C183.777 205.234 182.93 205.082 182.172 204.777C181.422 204.465 180.781 204.031 180.25 203.477C179.727 202.922 179.324 202.27 179.043 201.52C178.762 200.77 178.621 199.961 178.621 199.094V198.625C178.621 197.633 178.766 196.734 179.055 195.93C179.344 195.125 179.746 194.438 180.262 193.867C180.777 193.289 181.387 192.848 182.09 192.543C182.793 192.238 183.555 192.086 184.375 192.086C185.281 192.086 186.074 192.238 186.754 192.543C187.434 192.848 187.996 193.277 188.441 193.832C188.895 194.379 189.23 195.031 189.449 195.789C189.676 196.547 189.789 197.383 189.789 198.297V199.504H179.992V197.477H187V197.254C186.984 196.746 186.883 196.27 186.695 195.824C186.516 195.379 186.238 195.02 185.863 194.746C185.488 194.473 184.988 194.336 184.363 194.336C183.895 194.336 183.477 194.438 183.109 194.641C182.75 194.836 182.449 195.121 182.207 195.496C181.965 195.871 181.777 196.324 181.645 196.855C181.52 197.379 181.457 197.969 181.457 198.625V199.094C181.457 199.648 181.531 200.164 181.68 200.641C181.836 201.109 182.062 201.52 182.359 201.871C182.656 202.223 183.016 202.5 183.438 202.703C183.859 202.898 184.34 202.996 184.879 202.996C185.559 202.996 186.164 202.859 186.695 202.586C187.227 202.312 187.688 201.926 188.078 201.426L189.566 202.867C189.293 203.266 188.938 203.648 188.5 204.016C188.062 204.375 187.527 204.668 186.895 204.895C186.27 205.121 185.543 205.234 184.715 205.234ZM191.453 198.801V198.531C191.453 197.617 191.586 196.77 191.852 195.988C192.117 195.199 192.5 194.516 193 193.938C193.508 193.352 194.125 192.898 194.852 192.578C195.586 192.25 196.414 192.086 197.336 192.086C198.266 192.086 199.094 192.25 199.82 192.578C200.555 192.898 201.176 193.352 201.684 193.938C202.191 194.516 202.578 195.199 202.844 195.988C203.109 196.77 203.242 197.617 203.242 198.531V198.801C203.242 199.715 203.109 200.562 202.844 201.344C202.578 202.125 202.191 202.809 201.684 203.395C201.176 203.973 200.559 204.426 199.832 204.754C199.105 205.074 198.281 205.234 197.359 205.234C196.43 205.234 195.598 205.074 194.863 204.754C194.137 204.426 193.52 203.973 193.012 203.395C192.504 202.809 192.117 202.125 191.852 201.344C191.586 200.562 191.453 199.715 191.453 198.801ZM194.277 198.531V198.801C194.277 199.371 194.336 199.91 194.453 200.418C194.57 200.926 194.754 201.371 195.004 201.754C195.254 202.137 195.574 202.438 195.965 202.656C196.355 202.875 196.82 202.984 197.359 202.984C197.883 202.984 198.336 202.875 198.719 202.656C199.109 202.438 199.43 202.137 199.68 201.754C199.93 201.371 200.113 200.926 200.23 200.418C200.355 199.91 200.418 199.371 200.418 198.801V198.531C200.418 197.969 200.355 197.438 200.23 196.938C200.113 196.43 199.926 195.98 199.668 195.59C199.418 195.199 199.098 194.895 198.707 194.676C198.324 194.449 197.867 194.336 197.336 194.336C196.805 194.336 196.344 194.449 195.953 194.676C195.57 194.895 195.254 195.199 195.004 195.59C194.754 195.98 194.57 196.43 194.453 196.938C194.336 197.438 194.277 197.969 194.277 198.531Z" fill="white"/>
<path d="M167.132 171.36C165.135 171.36 163.319 170.09 162.593 168.094C162.593 167.913 162.593 167.731 162.411 167.731H146.25C146.25 167.913 146.25 168.094 146.069 168.094C145.524 170.09 143.708 171.36 141.711 171.36C140.621 171.36 139.895 172.086 139.895 173.175C139.895 174.263 140.621 174.989 141.711 174.989H167.132C168.222 174.989 168.948 174.263 168.948 173.175C168.948 172.086 168.222 171.36 167.132 171.36Z" fill="white"/>
<path d="M174.395 126H134.447C131.361 126 129 128.359 129 131.443V158.659C129 161.744 131.361 164.103 134.447 164.103H146.976H161.684H174.395C177.482 164.103 179.842 161.744 179.842 158.659V131.443C179.842 128.359 177.482 126 174.395 126ZM170.763 147.773H161.684C161.14 147.773 160.595 147.41 160.232 147.047L158.598 144.507L156.237 150.313C155.874 150.857 155.148 151.402 154.421 151.402C153.695 151.402 153.15 151.039 152.787 150.313L150.245 145.233L148.429 147.047C148.066 147.591 147.703 147.773 147.158 147.773H138.079C136.99 147.773 136.263 147.047 136.263 145.958C136.263 144.87 136.99 144.144 138.079 144.144H146.432L149.519 141.06C149.882 140.697 150.608 140.515 151.153 140.515C151.698 140.697 152.242 141.06 152.424 141.422L154.24 145.051L156.419 139.789C156.6 139.245 157.327 138.701 157.871 138.701C158.598 138.701 159.142 138.882 159.505 139.427L162.592 144.144H170.763C171.853 144.144 172.579 144.87 172.579 145.958C172.579 147.047 171.853 147.773 170.763 147.773Z" fill="white"/>
<path d="M123.309 527.938H126.238V539.34C126.238 540.637 125.957 541.723 125.395 542.598C124.832 543.473 124.066 544.133 123.098 544.578C122.137 545.016 121.062 545.234 119.875 545.234C118.648 545.234 117.555 545.016 116.594 544.578C115.633 544.133 114.875 543.473 114.32 542.598C113.773 541.723 113.5 540.637 113.5 539.34V527.938H116.43V539.34C116.43 540.16 116.57 540.836 116.852 541.367C117.133 541.891 117.531 542.277 118.047 542.527C118.562 542.777 119.172 542.902 119.875 542.902C120.578 542.902 121.184 542.777 121.691 542.527C122.207 542.277 122.605 541.891 122.887 541.367C123.168 540.836 123.309 540.16 123.309 539.34V527.938ZM129.168 527H131.992V542.293L131.723 545H129.168V527ZM140.266 538.543V538.789C140.266 539.727 140.16 540.59 139.949 541.379C139.746 542.16 139.434 542.84 139.012 543.418C138.598 543.996 138.082 544.445 137.465 544.766C136.855 545.078 136.148 545.234 135.344 545.234C134.555 545.234 133.867 545.086 133.281 544.789C132.695 544.492 132.203 544.07 131.805 543.523C131.414 542.977 131.098 542.324 130.855 541.566C130.613 540.809 130.441 539.973 130.34 539.059V538.273C130.441 537.352 130.613 536.516 130.855 535.766C131.098 535.008 131.414 534.355 131.805 533.809C132.203 533.254 132.691 532.828 133.27 532.531C133.855 532.234 134.539 532.086 135.32 532.086C136.133 532.086 136.848 532.242 137.465 532.555C138.09 532.867 138.609 533.312 139.023 533.891C139.438 534.461 139.746 535.141 139.949 535.93C140.16 536.719 140.266 537.59 140.266 538.543ZM137.441 538.789V538.543C137.441 537.973 137.395 537.438 137.301 536.938C137.207 536.43 137.051 535.984 136.832 535.602C136.621 535.219 136.332 534.918 135.965 534.699C135.605 534.473 135.156 534.359 134.617 534.359C134.117 534.359 133.688 534.445 133.328 534.617C132.969 534.789 132.668 535.023 132.426 535.32C132.184 535.617 131.992 535.961 131.852 536.352C131.719 536.742 131.629 537.164 131.582 537.617V539.738C131.652 540.324 131.801 540.863 132.027 541.355C132.262 541.84 132.59 542.23 133.012 542.527C133.434 542.816 133.977 542.961 134.641 542.961C135.164 542.961 135.605 542.855 135.965 542.645C136.324 542.434 136.609 542.141 136.82 541.766C137.039 541.383 137.195 540.938 137.289 540.43C137.391 539.922 137.441 539.375 137.441 538.789ZM145.68 532.32V545H142.844V532.32H145.68ZM142.656 528.992C142.656 528.562 142.797 528.207 143.078 527.926C143.367 527.637 143.766 527.492 144.273 527.492C144.773 527.492 145.168 527.637 145.457 527.926C145.746 528.207 145.891 528.562 145.891 528.992C145.891 529.414 145.746 529.766 145.457 530.047C145.168 530.328 144.773 530.469 144.273 530.469C143.766 530.469 143.367 530.328 143.078 530.047C142.797 529.766 142.656 529.414 142.656 528.992ZM153.953 542.984C154.414 542.984 154.828 542.895 155.195 542.715C155.57 542.527 155.871 542.27 156.098 541.941C156.332 541.613 156.461 541.234 156.484 540.805H159.145C159.129 541.625 158.887 542.371 158.418 543.043C157.949 543.715 157.328 544.25 156.555 544.648C155.781 545.039 154.926 545.234 153.988 545.234C153.02 545.234 152.176 545.07 151.457 544.742C150.738 544.406 150.141 543.945 149.664 543.359C149.188 542.773 148.828 542.098 148.586 541.332C148.352 540.566 148.234 539.746 148.234 538.871V538.461C148.234 537.586 148.352 536.766 148.586 536C148.828 535.227 149.188 534.547 149.664 533.961C150.141 533.375 150.738 532.918 151.457 532.59C152.176 532.254 153.016 532.086 153.977 532.086C154.992 532.086 155.883 532.289 156.648 532.695C157.414 533.094 158.016 533.652 158.453 534.371C158.898 535.082 159.129 535.91 159.145 536.855H156.484C156.461 536.387 156.344 535.965 156.133 535.59C155.93 535.207 155.641 534.902 155.266 534.676C154.898 534.449 154.457 534.336 153.941 534.336C153.371 534.336 152.898 534.453 152.523 534.688C152.148 534.914 151.855 535.227 151.645 535.625C151.434 536.016 151.281 536.457 151.188 536.949C151.102 537.434 151.059 537.938 151.059 538.461V538.871C151.059 539.395 151.102 539.902 151.188 540.395C151.273 540.887 151.422 541.328 151.633 541.719C151.852 542.102 152.148 542.41 152.523 542.645C152.898 542.871 153.375 542.984 153.953 542.984ZM168.461 542.457V536.41C168.461 535.957 168.379 535.566 168.215 535.238C168.051 534.91 167.801 534.656 167.465 534.477C167.137 534.297 166.723 534.207 166.223 534.207C165.762 534.207 165.363 534.285 165.027 534.441C164.691 534.598 164.43 534.809 164.242 535.074C164.055 535.34 163.961 535.641 163.961 535.977H161.148C161.148 535.477 161.27 534.992 161.512 534.523C161.754 534.055 162.105 533.637 162.566 533.27C163.027 532.902 163.578 532.613 164.219 532.402C164.859 532.191 165.578 532.086 166.375 532.086C167.328 532.086 168.172 532.246 168.906 532.566C169.648 532.887 170.23 533.371 170.652 534.02C171.082 534.66 171.297 535.465 171.297 536.434V542.07C171.297 542.648 171.336 543.168 171.414 543.629C171.5 544.082 171.621 544.477 171.777 544.812V545H168.883C168.75 544.695 168.645 544.309 168.566 543.84C168.496 543.363 168.461 542.902 168.461 542.457ZM168.871 537.289L168.895 539.035H166.867C166.344 539.035 165.883 539.086 165.484 539.188C165.086 539.281 164.754 539.422 164.488 539.609C164.223 539.797 164.023 540.023 163.891 540.289C163.758 540.555 163.691 540.855 163.691 541.191C163.691 541.527 163.77 541.836 163.926 542.117C164.082 542.391 164.309 542.605 164.605 542.762C164.91 542.918 165.277 542.996 165.707 542.996C166.285 542.996 166.789 542.879 167.219 542.645C167.656 542.402 168 542.109 168.25 541.766C168.5 541.414 168.633 541.082 168.648 540.77L169.562 542.023C169.469 542.344 169.309 542.688 169.082 543.055C168.855 543.422 168.559 543.773 168.191 544.109C167.832 544.438 167.398 544.707 166.891 544.918C166.391 545.129 165.812 545.234 165.156 545.234C164.328 545.234 163.59 545.07 162.941 544.742C162.293 544.406 161.785 543.957 161.418 543.395C161.051 542.824 160.867 542.18 160.867 541.461C160.867 540.789 160.992 540.195 161.242 539.68C161.5 539.156 161.875 538.719 162.367 538.367C162.867 538.016 163.477 537.75 164.195 537.57C164.914 537.383 165.734 537.289 166.656 537.289H168.871ZM179.43 542.984C179.891 542.984 180.305 542.895 180.672 542.715C181.047 542.527 181.348 542.27 181.574 541.941C181.809 541.613 181.938 541.234 181.961 540.805H184.621C184.605 541.625 184.363 542.371 183.895 543.043C183.426 543.715 182.805 544.25 182.031 544.648C181.258 545.039 180.402 545.234 179.465 545.234C178.496 545.234 177.652 545.07 176.934 544.742C176.215 544.406 175.617 543.945 175.141 543.359C174.664 542.773 174.305 542.098 174.062 541.332C173.828 540.566 173.711 539.746 173.711 538.871V538.461C173.711 537.586 173.828 536.766 174.062 536C174.305 535.227 174.664 534.547 175.141 533.961C175.617 533.375 176.215 532.918 176.934 532.59C177.652 532.254 178.492 532.086 179.453 532.086C180.469 532.086 181.359 532.289 182.125 532.695C182.891 533.094 183.492 533.652 183.93 534.371C184.375 535.082 184.605 535.91 184.621 536.855H181.961C181.938 536.387 181.82 535.965 181.609 535.59C181.406 535.207 181.117 534.902 180.742 534.676C180.375 534.449 179.934 534.336 179.418 534.336C178.848 534.336 178.375 534.453 178 534.688C177.625 534.914 177.332 535.227 177.121 535.625C176.91 536.016 176.758 536.457 176.664 536.949C176.578 537.434 176.535 537.938 176.535 538.461V538.871C176.535 539.395 176.578 539.902 176.664 540.395C176.75 540.887 176.898 541.328 177.109 541.719C177.328 542.102 177.625 542.41 178 542.645C178.375 542.871 178.852 542.984 179.43 542.984ZM189.812 532.32V545H186.977V532.32H189.812ZM186.789 528.992C186.789 528.562 186.93 528.207 187.211 527.926C187.5 527.637 187.898 527.492 188.406 527.492C188.906 527.492 189.301 527.637 189.59 527.926C189.879 528.207 190.023 528.562 190.023 528.992C190.023 529.414 189.879 529.766 189.59 530.047C189.301 530.328 188.906 530.469 188.406 530.469C187.898 530.469 187.5 530.328 187.211 530.047C186.93 529.766 186.789 529.414 186.789 528.992ZM192.367 538.801V538.531C192.367 537.617 192.5 536.77 192.766 535.988C193.031 535.199 193.414 534.516 193.914 533.938C194.422 533.352 195.039 532.898 195.766 532.578C196.5 532.25 197.328 532.086 198.25 532.086C199.18 532.086 200.008 532.25 200.734 532.578C201.469 532.898 202.09 533.352 202.598 533.938C203.105 534.516 203.492 535.199 203.758 535.988C204.023 536.77 204.156 537.617 204.156 538.531V538.801C204.156 539.715 204.023 540.562 203.758 541.344C203.492 542.125 203.105 542.809 202.598 543.395C202.09 543.973 201.473 544.426 200.746 544.754C200.02 545.074 199.195 545.234 198.273 545.234C197.344 545.234 196.512 545.074 195.777 544.754C195.051 544.426 194.434 543.973 193.926 543.395C193.418 542.809 193.031 542.125 192.766 541.344C192.5 540.562 192.367 539.715 192.367 538.801ZM195.191 538.531V538.801C195.191 539.371 195.25 539.91 195.367 540.418C195.484 540.926 195.668 541.371 195.918 541.754C196.168 542.137 196.488 542.438 196.879 542.656C197.27 542.875 197.734 542.984 198.273 542.984C198.797 542.984 199.25 542.875 199.633 542.656C200.023 542.438 200.344 542.137 200.594 541.754C200.844 541.371 201.027 540.926 201.145 540.418C201.27 539.91 201.332 539.371 201.332 538.801V538.531C201.332 537.969 201.27 537.438 201.145 536.938C201.027 536.43 200.84 535.98 200.582 535.59C200.332 535.199 200.012 534.895 199.621 534.676C199.238 534.449 198.781 534.336 198.25 534.336C197.719 534.336 197.258 534.449 196.867 534.676C196.484 534.895 196.168 535.199 195.918 535.59C195.668 535.98 195.484 536.43 195.367 536.938C195.25 537.438 195.191 537.969 195.191 538.531ZM196.773 530.527L199.059 527H202.246L199.059 530.527H196.773ZM209.324 535.027V545H206.5V532.32H209.16L209.324 535.027ZM208.82 538.191L207.906 538.18C207.914 537.281 208.039 536.457 208.281 535.707C208.531 534.957 208.875 534.312 209.312 533.773C209.758 533.234 210.289 532.82 210.906 532.531C211.523 532.234 212.211 532.086 212.969 532.086C213.578 532.086 214.129 532.172 214.621 532.344C215.121 532.508 215.547 532.777 215.898 533.152C216.258 533.527 216.531 534.016 216.719 534.617C216.906 535.211 217 535.941 217 536.809V545H214.164V536.797C214.164 536.188 214.074 535.707 213.895 535.355C213.723 534.996 213.469 534.742 213.133 534.594C212.805 534.438 212.395 534.359 211.902 534.359C211.418 534.359 210.984 534.461 210.602 534.664C210.219 534.867 209.895 535.145 209.629 535.496C209.371 535.848 209.172 536.254 209.031 536.715C208.891 537.176 208.82 537.668 208.82 538.191Z" fill="white"/>
<path d="M158.244 504.914C158.473 504.99 158.703 505.029 158.933 505.029C159.162 505.029 159.392 505.009 159.603 504.914C159.794 504.856 177.865 498.467 177.865 478.899C177.865 468.493 169.366 460 158.933 460C148.5 460 140 468.493 140 478.899C140 498.467 158.071 504.856 158.244 504.914ZM158.933 468.627C164.561 468.627 169.136 473.199 169.136 478.822C169.136 484.427 164.561 489.018 158.933 489.018C153.305 489.018 148.729 484.427 148.729 478.822C148.729 473.199 153.305 468.627 158.933 468.627Z" fill="white"/>
<path d="M170.074 501.739C169.098 501.107 167.777 501.394 167.145 502.37C166.513 503.345 166.801 504.665 167.777 505.296C168.562 505.794 168.811 506.215 168.811 506.349C168.811 507.114 165.403 509.333 158.914 509.333C152.424 509.333 149.036 507.114 149.036 506.349C149.036 506.215 149.284 505.794 150.069 505.296C151.046 504.665 151.333 503.364 150.701 502.37C150.069 501.394 148.768 501.107 147.772 501.739C145.303 503.326 144.786 505.124 144.786 506.349C144.805 511.073 151.907 513.56 158.933 513.56C165.958 513.56 173.06 511.073 173.06 506.349C173.06 505.124 172.544 503.307 170.074 501.739Z" fill="white"/>
<path d="M443.812 552.445H446.742C446.648 553.562 446.336 554.559 445.805 555.434C445.273 556.301 444.527 556.984 443.566 557.484C442.605 557.984 441.438 558.234 440.062 558.234C439.008 558.234 438.059 558.047 437.215 557.672C436.371 557.289 435.648 556.75 435.047 556.055C434.445 555.352 433.984 554.504 433.664 553.512C433.352 552.52 433.195 551.41 433.195 550.184V548.766C433.195 547.539 433.355 546.43 433.676 545.438C434.004 544.445 434.473 543.598 435.082 542.895C435.691 542.184 436.422 541.641 437.273 541.266C438.133 540.891 439.098 540.703 440.168 540.703C441.527 540.703 442.676 540.953 443.613 541.453C444.551 541.953 445.277 542.645 445.793 543.527C446.316 544.41 446.637 545.422 446.754 546.562H443.824C443.746 545.828 443.574 545.199 443.309 544.676C443.051 544.152 442.668 543.754 442.16 543.48C441.652 543.199 440.988 543.059 440.168 543.059C439.496 543.059 438.91 543.184 438.41 543.434C437.91 543.684 437.492 544.051 437.156 544.535C436.82 545.02 436.566 545.617 436.395 546.328C436.23 547.031 436.148 547.836 436.148 548.742V550.184C436.148 551.043 436.223 551.824 436.371 552.527C436.527 553.223 436.762 553.82 437.074 554.32C437.395 554.82 437.801 555.207 438.293 555.48C438.785 555.754 439.375 555.891 440.062 555.891C440.898 555.891 441.574 555.758 442.09 555.492C442.613 555.227 443.008 554.84 443.273 554.332C443.547 553.816 443.727 553.188 443.812 552.445ZM456.281 555.457V549.41C456.281 548.957 456.199 548.566 456.035 548.238C455.871 547.91 455.621 547.656 455.285 547.477C454.957 547.297 454.543 547.207 454.043 547.207C453.582 547.207 453.184 547.285 452.848 547.441C452.512 547.598 452.25 547.809 452.062 548.074C451.875 548.34 451.781 548.641 451.781 548.977H448.969C448.969 548.477 449.09 547.992 449.332 547.523C449.574 547.055 449.926 546.637 450.387 546.27C450.848 545.902 451.398 545.613 452.039 545.402C452.68 545.191 453.398 545.086 454.195 545.086C455.148 545.086 455.992 545.246 456.727 545.566C457.469 545.887 458.051 546.371 458.473 547.02C458.902 547.66 459.117 548.465 459.117 549.434V555.07C459.117 555.648 459.156 556.168 459.234 556.629C459.32 557.082 459.441 557.477 459.598 557.812V558H456.703C456.57 557.695 456.465 557.309 456.387 556.84C456.316 556.363 456.281 555.902 456.281 555.457ZM456.691 550.289L456.715 552.035H454.688C454.164 552.035 453.703 552.086 453.305 552.188C452.906 552.281 452.574 552.422 452.309 552.609C452.043 552.797 451.844 553.023 451.711 553.289C451.578 553.555 451.512 553.855 451.512 554.191C451.512 554.527 451.59 554.836 451.746 555.117C451.902 555.391 452.129 555.605 452.426 555.762C452.73 555.918 453.098 555.996 453.527 555.996C454.105 555.996 454.609 555.879 455.039 555.645C455.477 555.402 455.82 555.109 456.07 554.766C456.32 554.414 456.453 554.082 456.469 553.77L457.383 555.023C457.289 555.344 457.129 555.688 456.902 556.055C456.676 556.422 456.379 556.773 456.012 557.109C455.652 557.438 455.219 557.707 454.711 557.918C454.211 558.129 453.633 558.234 452.977 558.234C452.148 558.234 451.41 558.07 450.762 557.742C450.113 557.406 449.605 556.957 449.238 556.395C448.871 555.824 448.688 555.18 448.688 554.461C448.688 553.789 448.812 553.195 449.062 552.68C449.32 552.156 449.695 551.719 450.188 551.367C450.688 551.016 451.297 550.75 452.016 550.57C452.734 550.383 453.555 550.289 454.477 550.289H456.691ZM464.906 547.734V558H462.082V545.32H464.777L464.906 547.734ZM468.785 545.238L468.762 547.863C468.59 547.832 468.402 547.809 468.199 547.793C468.004 547.777 467.809 547.77 467.613 547.77C467.129 547.77 466.703 547.84 466.336 547.98C465.969 548.113 465.66 548.309 465.41 548.566C465.168 548.816 464.98 549.121 464.848 549.48C464.715 549.84 464.637 550.242 464.613 550.688L463.969 550.734C463.969 549.938 464.047 549.199 464.203 548.52C464.359 547.84 464.594 547.242 464.906 546.727C465.227 546.211 465.625 545.809 466.102 545.52C466.586 545.23 467.145 545.086 467.777 545.086C467.949 545.086 468.133 545.102 468.328 545.133C468.531 545.164 468.684 545.199 468.785 545.238ZM478.441 545.32H481.008V557.648C481.008 558.789 480.766 559.758 480.281 560.555C479.797 561.352 479.121 561.957 478.254 562.371C477.387 562.793 476.383 563.004 475.242 563.004C474.758 563.004 474.219 562.934 473.625 562.793C473.039 562.652 472.469 562.426 471.914 562.113C471.367 561.809 470.91 561.406 470.543 560.906L471.867 559.242C472.32 559.781 472.82 560.176 473.367 560.426C473.914 560.676 474.488 560.801 475.09 560.801C475.738 560.801 476.289 560.68 476.742 560.438C477.203 560.203 477.559 559.855 477.809 559.395C478.059 558.934 478.184 558.371 478.184 557.707V548.191L478.441 545.32ZM469.828 551.801V551.555C469.828 550.594 469.945 549.719 470.18 548.93C470.414 548.133 470.75 547.449 471.188 546.879C471.625 546.301 472.156 545.859 472.781 545.555C473.406 545.242 474.113 545.086 474.902 545.086C475.723 545.086 476.422 545.234 477 545.531C477.586 545.828 478.074 546.254 478.465 546.809C478.855 547.355 479.16 548.012 479.379 548.777C479.605 549.535 479.773 550.379 479.883 551.309V552.094C479.781 553 479.609 553.828 479.367 554.578C479.125 555.328 478.805 555.977 478.406 556.523C478.008 557.07 477.516 557.492 476.93 557.789C476.352 558.086 475.668 558.234 474.879 558.234C474.105 558.234 473.406 558.074 472.781 557.754C472.164 557.434 471.633 556.984 471.188 556.406C470.75 555.828 470.414 555.148 470.18 554.367C469.945 553.578 469.828 552.723 469.828 551.801ZM472.652 551.555V551.801C472.652 552.379 472.707 552.918 472.816 553.418C472.934 553.918 473.109 554.359 473.344 554.742C473.586 555.117 473.891 555.414 474.258 555.633C474.633 555.844 475.074 555.949 475.582 555.949C476.246 555.949 476.789 555.809 477.211 555.527C477.641 555.246 477.969 554.867 478.195 554.391C478.43 553.906 478.594 553.367 478.688 552.773V550.652C478.641 550.191 478.543 549.762 478.395 549.363C478.254 548.965 478.062 548.617 477.82 548.32C477.578 548.016 477.273 547.781 476.906 547.617C476.539 547.445 476.105 547.359 475.605 547.359C475.098 547.359 474.656 547.469 474.281 547.688C473.906 547.906 473.598 548.207 473.355 548.59C473.121 548.973 472.945 549.418 472.828 549.926C472.711 550.434 472.652 550.977 472.652 551.555ZM491.086 555.457V549.41C491.086 548.957 491.004 548.566 490.84 548.238C490.676 547.91 490.426 547.656 490.09 547.477C489.762 547.297 489.348 547.207 488.848 547.207C488.387 547.207 487.988 547.285 487.652 547.441C487.316 547.598 487.055 547.809 486.867 548.074C486.68 548.34 486.586 548.641 486.586 548.977H483.773C483.773 548.477 483.895 547.992 484.137 547.523C484.379 547.055 484.73 546.637 485.191 546.27C485.652 545.902 486.203 545.613 486.844 545.402C487.484 545.191 488.203 545.086 489 545.086C489.953 545.086 490.797 545.246 491.531 545.566C492.273 545.887 492.855 546.371 493.277 547.02C493.707 547.66 493.922 548.465 493.922 549.434V555.07C493.922 555.648 493.961 556.168 494.039 556.629C494.125 557.082 494.246 557.477 494.402 557.812V558H491.508C491.375 557.695 491.27 557.309 491.191 556.84C491.121 556.363 491.086 555.902 491.086 555.457ZM491.496 550.289L491.52 552.035H489.492C488.969 552.035 488.508 552.086 488.109 552.188C487.711 552.281 487.379 552.422 487.113 552.609C486.848 552.797 486.648 553.023 486.516 553.289C486.383 553.555 486.316 553.855 486.316 554.191C486.316 554.527 486.395 554.836 486.551 555.117C486.707 555.391 486.934 555.605 487.23 555.762C487.535 555.918 487.902 555.996 488.332 555.996C488.91 555.996 489.414 555.879 489.844 555.645C490.281 555.402 490.625 555.109 490.875 554.766C491.125 554.414 491.258 554.082 491.273 553.77L492.188 555.023C492.094 555.344 491.934 555.688 491.707 556.055C491.48 556.422 491.184 556.773 490.816 557.109C490.457 557.438 490.023 557.707 489.516 557.918C489.016 558.129 488.438 558.234 487.781 558.234C486.953 558.234 486.215 558.07 485.566 557.742C484.918 557.406 484.41 556.957 484.043 556.395C483.676 555.824 483.492 555.18 483.492 554.461C483.492 553.789 483.617 553.195 483.867 552.68C484.125 552.156 484.5 551.719 484.992 551.367C485.492 551.016 486.102 550.75 486.82 550.57C487.539 550.383 488.359 550.289 489.281 550.289H491.496ZM504.609 555.375V540H507.445V558H504.879L504.609 555.375ZM496.359 551.801V551.555C496.359 550.594 496.473 549.719 496.699 548.93C496.926 548.133 497.254 547.449 497.684 546.879C498.113 546.301 498.637 545.859 499.254 545.555C499.871 545.242 500.566 545.086 501.34 545.086C502.105 545.086 502.777 545.234 503.355 545.531C503.934 545.828 504.426 546.254 504.832 546.809C505.238 547.355 505.562 548.012 505.805 548.777C506.047 549.535 506.219 550.379 506.32 551.309V552.094C506.219 553 506.047 553.828 505.805 554.578C505.562 555.328 505.238 555.977 504.832 556.523C504.426 557.07 503.93 557.492 503.344 557.789C502.766 558.086 502.09 558.234 501.316 558.234C500.551 558.234 499.859 558.074 499.242 557.754C498.633 557.434 498.113 556.984 497.684 556.406C497.254 555.828 496.926 555.148 496.699 554.367C496.473 553.578 496.359 552.723 496.359 551.801ZM499.184 551.555V551.801C499.184 552.379 499.234 552.918 499.336 553.418C499.445 553.918 499.613 554.359 499.84 554.742C500.066 555.117 500.359 555.414 500.719 555.633C501.086 555.844 501.523 555.949 502.031 555.949C502.672 555.949 503.199 555.809 503.613 555.527C504.027 555.246 504.352 554.867 504.586 554.391C504.828 553.906 504.992 553.367 505.078 552.773V550.652C505.031 550.191 504.934 549.762 504.785 549.363C504.645 548.965 504.453 548.617 504.211 548.32C503.969 548.016 503.668 547.781 503.309 547.617C502.957 547.445 502.539 547.359 502.055 547.359C501.539 547.359 501.102 547.469 500.742 547.688C500.383 547.906 500.086 548.207 499.852 548.59C499.625 548.973 499.457 549.418 499.348 549.926C499.238 550.434 499.184 550.977 499.184 551.555ZM509.859 551.801V551.531C509.859 550.617 509.992 549.77 510.258 548.988C510.523 548.199 510.906 547.516 511.406 546.938C511.914 546.352 512.531 545.898 513.258 545.578C513.992 545.25 514.82 545.086 515.742 545.086C516.672 545.086 517.5 545.25 518.227 545.578C518.961 545.898 519.582 546.352 520.09 546.938C520.598 547.516 520.984 548.199 521.25 548.988C521.516 549.77 521.648 550.617 521.648 551.531V551.801C521.648 552.715 521.516 553.562 521.25 554.344C520.984 555.125 520.598 555.809 520.09 556.395C519.582 556.973 518.965 557.426 518.238 557.754C517.512 558.074 516.688 558.234 515.766 558.234C514.836 558.234 514.004 558.074 513.27 557.754C512.543 557.426 511.926 556.973 511.418 556.395C510.91 555.809 510.523 555.125 510.258 554.344C509.992 553.562 509.859 552.715 509.859 551.801ZM512.684 551.531V551.801C512.684 552.371 512.742 552.91 512.859 553.418C512.977 553.926 513.16 554.371 513.41 554.754C513.66 555.137 513.98 555.438 514.371 555.656C514.762 555.875 515.227 555.984 515.766 555.984C516.289 555.984 516.742 555.875 517.125 555.656C517.516 555.438 517.836 555.137 518.086 554.754C518.336 554.371 518.52 553.926 518.637 553.418C518.762 552.91 518.824 552.371 518.824 551.801V551.531C518.824 550.969 518.762 550.438 518.637 549.938C518.52 549.43 518.332 548.98 518.074 548.59C517.824 548.199 517.504 547.895 517.113 547.676C516.73 547.449 516.273 547.336 515.742 547.336C515.211 547.336 514.75 547.449 514.359 547.676C513.977 547.895 513.66 548.199 513.41 548.59C513.16 548.98 512.977 549.43 512.859 549.938C512.742 550.438 512.684 550.969 512.684 551.531ZM526.852 547.734V558H524.027V545.32H526.723L526.852 547.734ZM530.73 545.238L530.707 547.863C530.535 547.832 530.348 547.809 530.145 547.793C529.949 547.777 529.754 547.77 529.559 547.77C529.074 547.77 528.648 547.84 528.281 547.98C527.914 548.113 527.605 548.309 527.355 548.566C527.113 548.816 526.926 549.121 526.793 549.48C526.66 549.84 526.582 550.242 526.559 550.688L525.914 550.734C525.914 549.938 525.992 549.199 526.148 548.52C526.305 547.84 526.539 547.242 526.852 546.727C527.172 546.211 527.57 545.809 528.047 545.52C528.531 545.23 529.09 545.086 529.723 545.086C529.895 545.086 530.078 545.102 530.273 545.133C530.477 545.164 530.629 545.199 530.73 545.238ZM537.855 558.234C536.918 558.234 536.07 558.082 535.312 557.777C534.562 557.465 533.922 557.031 533.391 556.477C532.867 555.922 532.465 555.27 532.184 554.52C531.902 553.77 531.762 552.961 531.762 552.094V551.625C531.762 550.633 531.906 549.734 532.195 548.93C532.484 548.125 532.887 547.438 533.402 546.867C533.918 546.289 534.527 545.848 535.23 545.543C535.934 545.238 536.695 545.086 537.516 545.086C538.422 545.086 539.215 545.238 539.895 545.543C540.574 545.848 541.137 546.277 541.582 546.832C542.035 547.379 542.371 548.031 542.59 548.789C542.816 549.547 542.93 550.383 542.93 551.297V552.504H533.133V550.477H540.141V550.254C540.125 549.746 540.023 549.27 539.836 548.824C539.656 548.379 539.379 548.02 539.004 547.746C538.629 547.473 538.129 547.336 537.504 547.336C537.035 547.336 536.617 547.438 536.25 547.641C535.891 547.836 535.59 548.121 535.348 548.496C535.105 548.871 534.918 549.324 534.785 549.855C534.66 550.379 534.598 550.969 534.598 551.625V552.094C534.598 552.648 534.672 553.164 534.82 553.641C534.977 554.109 535.203 554.52 535.5 554.871C535.797 555.223 536.156 555.5 536.578 555.703C537 555.898 537.48 555.996 538.02 555.996C538.699 555.996 539.305 555.859 539.836 555.586C540.367 555.312 540.828 554.926 541.219 554.426L542.707 555.867C542.434 556.266 542.078 556.648 541.641 557.016C541.203 557.375 540.668 557.668 540.035 557.895C539.41 558.121 538.684 558.234 537.855 558.234ZM552.246 554.566C552.246 554.285 552.176 554.031 552.035 553.805C551.895 553.57 551.625 553.359 551.227 553.172C550.836 552.984 550.258 552.812 549.492 552.656C548.82 552.508 548.203 552.332 547.641 552.129C547.086 551.918 546.609 551.664 546.211 551.367C545.812 551.07 545.504 550.719 545.285 550.312C545.066 549.906 544.957 549.438 544.957 548.906C544.957 548.391 545.07 547.902 545.297 547.441C545.523 546.98 545.848 546.574 546.27 546.223C546.691 545.871 547.203 545.594 547.805 545.391C548.414 545.188 549.094 545.086 549.844 545.086C550.906 545.086 551.816 545.266 552.574 545.625C553.34 545.977 553.926 546.457 554.332 547.066C554.738 547.668 554.941 548.348 554.941 549.105H552.117C552.117 548.77 552.031 548.457 551.859 548.168C551.695 547.871 551.445 547.633 551.109 547.453C550.773 547.266 550.352 547.172 549.844 547.172C549.359 547.172 548.957 547.25 548.637 547.406C548.324 547.555 548.09 547.75 547.934 547.992C547.785 548.234 547.711 548.5 547.711 548.789C547.711 549 547.75 549.191 547.828 549.363C547.914 549.527 548.055 549.68 548.25 549.82C548.445 549.953 548.711 550.078 549.047 550.195C549.391 550.312 549.82 550.426 550.336 550.535C551.305 550.738 552.137 551 552.832 551.32C553.535 551.633 554.074 552.039 554.449 552.539C554.824 553.031 555.012 553.656 555.012 554.414C555.012 554.977 554.891 555.492 554.648 555.961C554.414 556.422 554.07 556.824 553.617 557.168C553.164 557.504 552.621 557.766 551.988 557.953C551.363 558.141 550.66 558.234 549.879 558.234C548.73 558.234 547.758 558.031 546.961 557.625C546.164 557.211 545.559 556.684 545.145 556.043C544.738 555.395 544.535 554.723 544.535 554.027H547.266C547.297 554.551 547.441 554.969 547.699 555.281C547.965 555.586 548.293 555.809 548.684 555.949C549.082 556.082 549.492 556.148 549.914 556.148C550.422 556.148 550.848 556.082 551.191 555.949C551.535 555.809 551.797 555.621 551.977 555.387C552.156 555.145 552.246 554.871 552.246 554.566Z" fill="white"/>
<path d="M512.612 507.513H481.553C480.695 507.513 480 508.209 480 509.067V512.175C480 513.034 480.695 513.729 481.553 513.729H512.612C513.47 513.729 514.165 513.034 514.165 512.175V509.067C514.165 508.209 513.47 507.513 512.612 507.513ZM532.801 476.432V471.77C532.801 470.912 532.106 470.216 531.248 470.216C530.39 470.216 529.695 470.912 529.695 471.77V476.432H526.589V471.77C526.589 470.912 525.894 470.216 525.036 470.216C524.178 470.216 523.483 470.912 523.483 471.77V476.432H521.93C521.072 476.432 520.377 477.128 520.377 477.986V481.095C520.377 484.568 522.67 487.475 525.813 488.469V499.978C525.813 501.333 524.891 502.593 523.555 502.813C521.855 503.094 520.377 501.782 520.377 500.132V497.412C520.377 492.692 516.553 488.865 511.836 488.865H511.059V470.216C511.059 466.783 508.279 464 504.848 464H489.318C485.887 464 483.106 466.783 483.106 470.216V504.405H511.059V493.527H511.836C513.98 493.527 515.718 495.266 515.718 497.412V499.802C515.718 503.655 518.525 507.102 522.358 507.476C526.755 507.907 530.472 504.445 530.472 500.132V488.469C533.614 487.475 535.907 484.568 535.907 481.095V477.986C535.907 477.128 535.212 476.432 534.354 476.432H532.801ZM505.245 481.071L496.15 494.572C495.936 494.895 495.547 495.081 495.141 495.081C494.397 495.081 493.834 494.471 494.009 493.826L496.243 485.757H490.483C489.779 485.757 489.235 485.214 489.329 484.602L490.881 474.209C490.958 473.703 491.451 473.324 492.036 473.324H498.636C499.401 473.324 499.958 473.959 499.762 474.607L498.636 479.54H504.236C505.133 479.54 505.693 480.393 505.245 481.071Z" fill="white"/>
<g clip-path="url(#clip0_150_360)">
<path d="M250.26 382.19H272.31C273.85 382.19 275.14 382.29 276.18 382.49C277.22 382.69 278.04 383.01 278.63 383.43C279.22 383.85 279.6 384.41 279.77 385.09C279.94 385.77 279.93 386.57 279.72 387.5L278.29 394.31C277.81 396.54 276.83 398.09 275.37 398.96C273.95 399.83 271.64 400.27 268.44 400.27H259.89L258.49 406.86H245L250.26 382.19ZM262.56 387.75L261.07 394.68H262.83C263.5 394.68 264 394.55 264.35 394.29C264.7 394.03 264.95 393.57 265.11 392.92L265.81 389.55C265.95 388.9 265.91 388.44 265.69 388.17C265.47 387.9 265.03 387.76 264.38 387.76H262.55L262.56 387.75Z" fill="url(#paint5_linear_150_360)"/>
<path d="M289.05 382.19H302.54L300.75 390.55H304.18L305.97 382.19H319.46L314.2 406.86H300.71L302.99 396.17H299.56L297.28 406.86H283.79L289.05 382.19Z" fill="url(#paint6_linear_150_360)"/>
<path d="M332.34 382.19H353.46L354.28 406.86H340.34L340.67 401.51H336.81L334.93 406.86H321.02L332.35 382.19H332.34ZM341.33 396.07L341.69 387.69L338.47 396.07H341.33Z" fill="url(#paint7_linear_150_360)"/>
<path d="M363.13 405.86C361.88 405.07 361.42 403.91 361.75 402.4L362.69 397.93H376.48L376.12 399.66C375.88 400.83 376.31 401.42 377.43 401.42C378.02 401.42 378.48 401.27 378.81 400.98C379.14 400.69 379.38 400.19 379.52 399.5C379.6 399.12 379.65 398.8 379.66 398.54C379.67 398.29 379.61 398.07 379.49 397.89C379.37 397.71 379.17 397.55 378.9 397.41C378.63 397.27 378.25 397.13 377.76 396.99L368.98 394.29C366.96 393.66 365.64 392.99 365.03 392.28C364.44 391.53 364.28 390.54 364.55 389.3L365.1 386.66C365.77 383.58 368.91 382.04 374.55 382.04H388.43C394.06 382.04 396.54 383.58 395.87 386.66L395.26 389.58H381.56L381.62 389.28C381.86 388.17 381.4 387.61 380.22 387.61C379.74 387.61 379.32 387.72 378.97 387.95C378.62 388.18 378.41 388.47 378.33 388.83C378.29 389.01 378.28 389.17 378.3 389.3C378.32 389.43 378.41 389.56 378.56 389.68C378.71 389.8 378.94 389.93 379.23 390.06C379.52 390.19 379.92 390.34 380.43 390.5L390.61 393.78C391.24 394 391.76 394.25 392.19 394.54C392.61 394.82 392.94 395.17 393.15 395.57C393.36 395.98 393.47 396.46 393.48 397.03C393.49 397.6 393.42 398.27 393.25 399.03L392.67 401.77C392.26 403.61 391.3 404.95 389.78 405.79C388.26 406.63 386.03 407.05 383.1 407.05H369.22C366.41 407.05 364.38 406.65 363.13 405.86Z" fill="url(#paint8_linear_150_360)"/>
<path d="M404.95 382.19H431.68L430.47 387.81H417.22L416.64 390.51H428.64L427.45 396.13H415.45L414.36 401.23H427.61L426.42 406.85H399.68L404.94 382.18L404.95 382.19Z" fill="url(#paint9_linear_150_360)"/>
<path d="M300.62 334.54C301.3 330.94 298.58 327.59 294.88 327.59H281.17C278.69 327.59 276.89 325.26 277.52 322.83L295.32 259.15C296.49 254.92 300.33 252 304.7 252H339.89L325.21 276.96C324.28 279.03 322.23 280.35 319.97 280.35H317.66C316.88 280.35 316.2 280.79 315.91 281.52L311.54 291.24C310.96 292.55 311.88 294.01 313.29 294.01H317.66L316.12 297.84C314.76 300.95 317.04 304.45 320.45 304.45H329.9L295.13 362.44L300.62 334.54Z" fill="url(#paint10_linear_150_360)"/>
<path d="M343.97 252L330.9 273.88H361.66C370.2 274.49 376.72 281.8 376.42 290.06C376.13 297.91 369.82 303.59 361.72 304.16C355.51 304.16 340.09 304.53 333.87 304.53L321.85 324.63H361.67C380.84 323.94 396.23 309.5 398.05 292.26C400.13 272.48 383.91 253.06 361.66 252H343.97Z" fill="url(#paint11_linear_150_360)"/>
<path d="M361.67 277.03L347.38 301.19H335.32L349.76 277.03H361.67Z" fill="url(#paint12_linear_150_360)"/>
<path d="M373.09 287.68C373.77 294.39 368.76 301.24 362.01 301.19H351.27L365.41 277.57C369.54 278.98 372.6 283.06 373.09 287.68Z" fill="url(#paint13_linear_150_360)"/>
</g>
<defs>
<filter id="filter0_dd_150_360" x="8" y="12" width="658" height="658" filterUnits="userSpaceOnUse" color-interpolation-filters="sRGB">
<feFlood flood-opacity="0" result="BackgroundImageFix"/>
<feColorMatrix in="SourceAlpha" type="matrix" values="0 0 0 0 0 0 0 0 0 0 0 0 0 0 0 0 0 0 127 0" result="hardAlpha"/>
<feOffset dy="4"/>
<feGaussianBlur stdDeviation="2"/>
<feComposite in2="hardAlpha" operator="out"/>
<feColorMatrix type="matrix" values="0 0 0 0 0 0 0 0 0 0 0 0 0 0 0 0 0 0 0.25 0"/>
<feBlend mode="normal" in2="BackgroundImageFix" result="effect1_dropShadow_150_360"/>
<feColorMatrix in="SourceAlpha" type="matrix" values="0 0 0 0 0 0 0 0 0 0 0 0 0 0 0 0 0 0 127 0" result="hardAlpha"/>
<feOffset dy="4"/>
<feGaussianBlur stdDeviation="2"/>
<feComposite in2="hardAlpha" operator="out"/>
<feColorMatrix type="matrix" values="0 0 0 0 0 0 0 0 0 0 0 0 0 0 0 0 0 0 0.25 0"/>
<feBlend mode="normal" in2="effect1_dropShadow_150_360" result="effect2_dropShadow_150_360"/>
<feBlend mode="normal" in="SourceGraphic" in2="effect2_dropShadow_150_360" result="shape"/>
</filter>
<filter id="filter1_d_150_360" x="0.1" y="311.85" width="349.3" height="350.15" filterUnits="userSpaceOnUse" color-interpolation-filters="sRGB">
<feFlood flood-opacity="0" result="BackgroundImageFix"/>
<feColorMatrix in="SourceAlpha" type="matrix" values="0 0 0 0 0 0 0 0 0 0 0 0 0 0 0 0 0 0 127 0" result="hardAlpha"/>
<feOffset dy="-13"/>
<feGaussianBlur stdDeviation="5.95"/>
<feComposite in2="hardAlpha" operator="out"/>
<feColorMatrix type="matrix" values="0 0 0 0 0 0 0 0 0 0 0 0 0 0 0 0 0 0 0.25 0"/>
<feBlend mode="normal" in2="BackgroundImageFix" result="effect1_dropShadow_150_360"/>
<feBlend mode="normal" in="SourceGraphic" in2="effect1_dropShadow_150_360" result="shape"/>
</filter>
<filter id="filter2_d_150_360" x="311.6" y="324.85" width="350.4" height="349.05" filterUnits="userSpaceOnUse" color-interpolation-filters="sRGB">
<feFlood flood-opacity="0" result="BackgroundImageFix"/>
<feColorMatrix in="SourceAlpha" type="matrix" values="0 0 0 0 0 0 0 0 0 0 0 0 0 0 0 0 0 0 127 0" result="hardAlpha"/>
<feOffset dx="-13"/>
<feGaussianBlur stdDeviation="5.95"/>
<feComposite in2="hardAlpha" operator="out"/>
<feColorMatrix type="matrix" values="0 0 0 0 0 0 0 0 0 0 0 0 0 0 0 0 0 0 0.25 0"/>
<feBlend mode="normal" in2="BackgroundImageFix" result="effect1_dropShadow_150_360"/>
<feBlend mode="normal" in="SourceGraphic" in2="effect1_dropShadow_150_360" result="shape"/>
</filter>
<filter id="filter3_d_150_360" x="311.6" y="0.1" width="350.4" height="349.05" filterUnits="userSpaceOnUse" color-interpolation-filters="sRGB">
<feFlood flood-opacity="0" result="BackgroundImageFix"/>
<feColorMatrix in="SourceAlpha" type="matrix" values="0 0 0 0 0 0 0 0 0 0 0 0 0 0 0 0 0 0 127 0" result="hardAlpha"/>
<feOffset dx="-13"/>
<feGaussianBlur stdDeviation="5.95"/>
<feComposite in2="hardAlpha" operator="out"/>
<feColorMatrix type="matrix" values="0 0 0 0 0 0 0 0 0 0 0 0 0 0 0 0 0 0 0.25 0"/>
<feBlend mode="normal" in2="BackgroundImageFix" result="effect1_dropShadow_150_360"/>
<feBlend mode="normal" in="SourceGraphic" in2="effect1_dropShadow_150_360" result="shape"/>
</filter>
<linearGradient id="paint0_linear_150_360" x1="306.386" y1="337.332" x2="523.504" y2="337.332" gradientUnits="userSpaceOnUse">
<stop stop-color="#E4E4E4"/>
<stop offset="1" stop-color="#7E7E7E"/>
</linearGradient>
<linearGradient id="paint1_linear_150_360" x1="174.75" y1="12" x2="174.75" y2="337.25" gradientUnits="userSpaceOnUse">
<stop stop-color="#91C73F"/>
<stop offset="1" stop-color="#5BA354"/>
</linearGradient>
<linearGradient id="paint2_linear_150_360" x1="89.2004" y1="359.927" x2="318.122" y2="595.021" gradientUnits="userSpaceOnUse">
<stop stop-color="#5BA354"/>
<stop offset="1" stop-color="#25747B"/>
</linearGradient>
<linearGradient id="paint3_linear_150_360" x1="585.549" y1="351.439" x2="352.881" y2="588.034" gradientUnits="userSpaceOnUse">
<stop stop-color="#023951"/>
<stop offset="1" stop-color="#25747B"/>
</linearGradient>
<linearGradient id="paint4_linear_150_360" x1="352.949" y1="84.897" x2="590.61" y2="326.239" gradientUnits="userSpaceOnUse">
<stop stop-color="#01061D"/>
<stop offset="1" stop-color="#023951"/>
</linearGradient>
<linearGradient id="paint5_linear_150_360" x1="246.763" y1="387.719" x2="263.676" y2="411.99" gradientUnits="userSpaceOnUse">
<stop stop-color="#01061D"/>
<stop offset="1" stop-color="#023951"/>
</linearGradient>
<linearGradient id="paint6_linear_150_360" x1="285.592" y1="387.719" x2="302.373" y2="412.339" gradientUnits="userSpaceOnUse">
<stop stop-color="#01061D"/>
<stop offset="1" stop-color="#023951"/>
</linearGradient>
<linearGradient id="paint7_linear_150_360" x1="322.701" y1="387.719" x2="339.879" y2="411.22" gradientUnits="userSpaceOnUse">
<stop stop-color="#01061D"/>
<stop offset="1" stop-color="#023951"/>
</linearGradient>
<linearGradient id="paint8_linear_150_360" x1="363.381" y1="387.645" x2="380.699" y2="411.766" gradientUnits="userSpaceOnUse">
<stop stop-color="#01061D"/>
<stop offset="1" stop-color="#023951"/>
</linearGradient>
<linearGradient id="paint9_linear_150_360" x1="401.297" y1="387.709" x2="418.666" y2="410.57" gradientUnits="userSpaceOnUse">
<stop stop-color="#01061D"/>
<stop offset="1" stop-color="#023951"/>
</linearGradient>
<linearGradient id="paint10_linear_150_360" x1="292.216" y1="259.87" x2="359.751" y2="299.087" gradientUnits="userSpaceOnUse">
<stop stop-color="#5BA354"/>
<stop offset="1" stop-color="#25747B"/>
</linearGradient>
<linearGradient id="paint11_linear_150_360" x1="380.29" y1="255.28" x2="328.441" y2="310.684" gradientUnits="userSpaceOnUse">
<stop stop-color="#023951"/>
<stop offset="1" stop-color="#25747B"/>
</linearGradient>
<linearGradient id="paint12_linear_150_360" x1="336.651" y1="282.445" x2="354.217" y2="301.884" gradientUnits="userSpaceOnUse">
<stop stop-color="#01061D"/>
<stop offset="1" stop-color="#023951"/>
</linearGradient>
<linearGradient id="paint13_linear_150_360" x1="352.376" y1="282.864" x2="369.604" y2="299.059" gradientUnits="userSpaceOnUse">
<stop stop-color="#01061D"/>
<stop offset="1" stop-color="#023951"/>
</linearGradient>
<clipPath id="clip0_150_360">
<rect width="186.68" height="155.04" fill="white" transform="translate(245 252)"/>
</clipPath>
</defs>
</svg>
