<svg width="187" height="156" viewBox="0 0 187 156" fill="none" xmlns="http://www.w3.org/2000/svg">
<g clip-path="url(#clip0_2006_206)">
<path d="M5.26 130.19H27.31C28.85 130.19 30.14 130.29 31.18 130.49C32.22 130.69 33.04 131.01 33.63 131.43C34.22 131.85 34.6 132.41 34.77 133.09C34.94 133.77 34.93 134.57 34.72 135.5L33.29 142.31C32.81 144.54 31.83 146.09 30.37 146.96C28.95 147.83 26.64 148.27 23.44 148.27H14.89L13.49 154.86H0L5.26 130.19ZM17.56 135.75L16.07 142.68H17.83C18.5 142.68 19 142.55 19.35 142.29C19.7 142.03 19.95 141.57 20.11 140.92L20.81 137.55C20.95 136.9 20.91 136.44 20.69 136.17C20.47 135.9 20.03 135.76 19.38 135.76H17.55L17.56 135.75Z" fill="url(#paint0_linear_2006_206)"/>
<path d="M44.05 130.19H57.54L55.75 138.55H59.18L60.97 130.19H74.46L69.2 154.86H55.71L57.99 144.17H54.56L52.28 154.86H38.79L44.05 130.19Z" fill="url(#paint1_linear_2006_206)"/>
<path d="M87.34 130.19H108.46L109.28 154.86H95.34L95.67 149.51H91.81L89.93 154.86H76.02L87.35 130.19H87.34ZM96.33 144.07L96.69 135.69L93.47 144.07H96.33Z" fill="url(#paint2_linear_2006_206)"/>
<path d="M118.13 153.86C116.88 153.07 116.42 151.91 116.75 150.4L117.69 145.93H131.48L131.12 147.66C130.88 148.83 131.31 149.42 132.43 149.42C133.02 149.42 133.48 149.27 133.81 148.98C134.14 148.69 134.38 148.19 134.52 147.5C134.6 147.12 134.65 146.8 134.66 146.54C134.67 146.29 134.61 146.07 134.49 145.89C134.37 145.71 134.17 145.55 133.9 145.41C133.63 145.27 133.25 145.13 132.76 144.99L123.98 142.29C121.96 141.66 120.64 140.99 120.03 140.28C119.44 139.53 119.28 138.54 119.55 137.3L120.1 134.66C120.77 131.58 123.91 130.04 129.55 130.04H143.43C149.06 130.04 151.54 131.58 150.87 134.66L150.26 137.58H136.56L136.62 137.28C136.86 136.17 136.4 135.61 135.22 135.61C134.74 135.61 134.32 135.72 133.97 135.95C133.62 136.18 133.41 136.47 133.33 136.83C133.29 137.01 133.28 137.17 133.3 137.3C133.32 137.43 133.41 137.56 133.56 137.68C133.71 137.8 133.94 137.93 134.23 138.06C134.52 138.19 134.92 138.34 135.43 138.5L145.61 141.78C146.24 142 146.76 142.25 147.19 142.54C147.61 142.82 147.94 143.17 148.15 143.57C148.36 143.98 148.47 144.46 148.48 145.03C148.49 145.6 148.42 146.27 148.25 147.03L147.67 149.77C147.26 151.61 146.3 152.95 144.78 153.79C143.26 154.63 141.03 155.05 138.1 155.05H124.22C121.41 155.05 119.38 154.65 118.13 153.86Z" fill="url(#paint3_linear_2006_206)"/>
<path d="M159.95 130.19H186.68L185.47 135.81H172.22L171.64 138.51H183.64L182.45 144.13H170.45L169.36 149.23H182.61L181.42 154.85H154.68L159.94 130.18L159.95 130.19Z" fill="url(#paint4_linear_2006_206)"/>
<path d="M55.62 82.54C56.3 78.94 53.58 75.59 49.88 75.59H36.17C33.69 75.59 31.89 73.26 32.52 70.83L50.32 7.15C51.49 2.92 55.33 0 59.7 0H94.89L80.21 24.96C79.28 27.03 77.23 28.35 74.97 28.35H72.66C71.88 28.35 71.2 28.79 70.91 29.52L66.54 39.24C65.96 40.55 66.88 42.01 68.29 42.01H72.66L71.12 45.84C69.76 48.95 72.04 52.45 75.45 52.45H84.9L50.13 110.44L55.62 82.54Z" fill="url(#paint5_linear_2006_206)"/>
<path d="M98.97 0L85.9 21.88H116.66C125.2 22.49 131.72 29.8 131.42 38.06C131.13 45.91 124.82 51.59 116.72 52.16C110.51 52.16 95.09 52.53 88.87 52.53L76.85 72.63H116.67C135.84 71.94 151.23 57.5 153.05 40.26C155.13 20.48 138.91 1.06 116.66 0H98.97Z" fill="url(#paint6_linear_2006_206)"/>
<path d="M116.67 25.03L102.38 49.19H90.3199L104.76 25.03H116.67Z" fill="url(#paint7_linear_2006_206)"/>
<path d="M128.09 35.6799C128.77 42.3899 123.76 49.2399 117.01 49.1899H106.27L120.41 25.5699C124.54 26.9799 127.6 31.0599 128.09 35.6799Z" fill="url(#paint8_linear_2006_206)"/>
</g>
<defs>
<linearGradient id="paint0_linear_2006_206" x1="1.763" y1="135.719" x2="18.6765" y2="159.99" gradientUnits="userSpaceOnUse">
<stop stop-color="#01061D"/>
<stop offset="1" stop-color="#023951"/>
</linearGradient>
<linearGradient id="paint1_linear_2006_206" x1="40.5925" y1="135.719" x2="57.3731" y2="160.339" gradientUnits="userSpaceOnUse">
<stop stop-color="#01061D"/>
<stop offset="1" stop-color="#023951"/>
</linearGradient>
<linearGradient id="paint2_linear_2006_206" x1="77.7007" y1="135.719" x2="94.879" y2="159.22" gradientUnits="userSpaceOnUse">
<stop stop-color="#01061D"/>
<stop offset="1" stop-color="#023951"/>
</linearGradient>
<linearGradient id="paint3_linear_2006_206" x1="118.381" y1="135.645" x2="135.699" y2="159.766" gradientUnits="userSpaceOnUse">
<stop stop-color="#01061D"/>
<stop offset="1" stop-color="#023951"/>
</linearGradient>
<linearGradient id="paint4_linear_2006_206" x1="156.297" y1="135.709" x2="173.666" y2="158.57" gradientUnits="userSpaceOnUse">
<stop stop-color="#01061D"/>
<stop offset="1" stop-color="#023951"/>
</linearGradient>
<linearGradient id="paint5_linear_2006_206" x1="47.216" y1="7.8696" x2="114.751" y2="47.0873" gradientUnits="userSpaceOnUse">
<stop stop-color="#5BA354"/>
<stop offset="1" stop-color="#25747B"/>
</linearGradient>
<linearGradient id="paint6_linear_2006_206" x1="135.29" y1="3.27996" x2="83.4408" y2="58.6837" gradientUnits="userSpaceOnUse">
<stop stop-color="#023951"/>
<stop offset="1" stop-color="#25747B"/>
</linearGradient>
<linearGradient id="paint7_linear_2006_206" x1="91.6515" y1="30.4449" x2="109.217" y2="49.8845" gradientUnits="userSpaceOnUse">
<stop stop-color="#01061D"/>
<stop offset="1" stop-color="#023951"/>
</linearGradient>
<linearGradient id="paint8_linear_2006_206" x1="107.376" y1="30.8639" x2="124.604" y2="47.0591" gradientUnits="userSpaceOnUse">
<stop stop-color="#01061D"/>
<stop offset="1" stop-color="#023951"/>
</linearGradient>
<clipPath id="clip0_2006_206">
<rect width="186.68" height="155.04" fill="white"/>
</clipPath>
</defs>
</svg>
